<svg width="27" height="23" viewBox="0 0 27 23" fill="none" xmlns="http://www.w3.org/2000/svg">
<path d="M19.8482 -5.6598e-07C21.8358 -3.92214e-07 23.426 0.709877 24.6186 2.12963C25.7544 3.60617 26.3223 5.50864 26.3223 7.83704C26.3223 11.0173 25.4704 13.8852 23.7667 16.4407C22.0062 19.0531 19.3371 21.2395 15.7593 23L14.8223 21.637C16.526 20.6148 18.0877 19.1667 19.5075 17.2926C20.8704 15.4753 21.5519 13.6296 21.5519 11.7556C21.5519 11.2444 21.4099 10.8185 21.126 10.4778C20.842 10.1938 20.4161 10.0518 19.8482 10.0518C18.4284 10.0518 17.2358 9.54074 16.2704 8.51852C15.2482 7.55309 14.7371 6.36049 14.7371 4.94074C14.7371 3.52099 15.2482 2.32839 16.2704 1.36296C17.2358 0.45432 18.4284 -6.90098e-07 19.8482 -5.6598e-07ZM5.11116 -1.85433e-06C7.09881 -1.68056e-06 8.68893 0.709875 9.88152 2.12963C11.0173 3.60617 11.5852 5.50864 11.5852 7.83704C11.5852 11.0173 10.7334 13.8852 9.02967 16.4407C7.26918 19.0531 4.60004 21.2395 1.02226 23L0.0852262 21.637C1.78893 20.6148 3.35066 19.1667 4.77041 17.2926C6.13337 15.4753 6.81486 13.6296 6.81486 11.7556C6.81486 11.2444 6.67288 10.8185 6.38893 10.4778C6.10498 10.1938 5.67906 10.0518 5.11116 10.0518C3.6914 10.0518 2.49881 9.54074 1.53338 8.51852C0.511154 7.55309 4.53237e-05 6.36049 4.54478e-05 4.94074C4.55719e-05 3.52098 0.511154 2.32839 1.53338 1.36296C2.49881 0.454319 3.6914 -1.97845e-06 5.11116 -1.85433e-06Z" fill="#222222"/>
</svg>
