<svg xmlns="http://www.w3.org/2000/svg" width="81" height="82" viewBox="0 0 81 82" fill="none">
  <path d="M72.8891 0.839245C71.6944 0.300759 69.9275 2.22753 69.3301 2.42946C67.5453 2.78027 65.8951 3.62577 64.5679 4.86947C62.2625 7.14121 47.8075 28.8741 44.341 32.9128C42.49 35.0751 40.9755 37.0019 40.5043 37.0019C40.0331 37.0019 38.5186 35.0751 36.6676 32.9128C33.2011 28.8657 18.7293 7.14121 16.4323 4.86947C15.105 3.62577 13.4548 2.78027 11.6701 2.42946C11.0727 2.22753 9.3142 0.300759 8.11103 0.839245C7.19392 1.25994 8.18675 3.20353 8.18675 3.20353C8.59903 4.41513 13.6305 16.2534 18.662 27.225C23.2054 37.1197 27.4797 45.6513 29.154 48.9832C35.8851 62.3444 39.5872 63.7327 40.4875 63.7495C41.3877 63.7495 45.1319 62.3528 51.8209 48.9832C53.5037 45.6177 57.7779 37.1197 62.3214 27.225C67.3697 16.287 72.418 4.41513 72.7798 3.20353C72.805 3.20353 73.8063 1.25994 72.8891 0.839245ZM71.2064 3.59898C68.9935 6.11472 53.3438 38.609 49.81 44.6164C46.2762 50.6239 41.7664 58.0786 40.5127 58.0786C39.2675 58.0197 34.7997 50.6492 31.2575 44.6164C27.7153 38.5837 12.0487 6.11472 9.83586 3.59898C9.25531 2.91746 7.82495 1.58808 8.3382 1.30201C9.08703 0.889728 10.8623 2.87539 11.9057 3.14464C13.3661 3.369 14.7102 4.07361 15.7255 5.14713C17.6187 6.94769 21.0936 12.6186 27.2357 21.7813C31.0724 27.5195 34.2696 31.9368 36.0618 34.1917C38.2915 37.0187 39.8312 38.3986 40.5043 38.3986C41.1774 38.3986 42.7087 37.044 44.9384 34.1917C46.7305 31.9452 49.9278 27.5279 53.7645 21.7813C59.9066 12.6186 63.3731 6.94769 65.283 5.14713C66.2972 4.07205 67.6418 3.36714 69.1029 3.14464C70.1631 2.87539 71.9216 0.889728 72.662 1.30201C73.2005 1.58808 71.7701 2.91746 71.1727 3.59898H71.2064Z" fill="#979797"/>
  <path d="M67.6556 5.36574C66.8142 6.74561 63.5328 13.1906 59.3427 20.7967C54.6898 29.3031 49.1283 38.9201 48.0177 40.7964C45.9395 44.305 41.7998 50.2872 40.5041 50.3293C39.2168 50.2788 35.0772 44.305 32.999 40.788C31.8968 38.9201 26.3689 29.3031 21.6824 20.7967C17.4754 13.2243 14.1604 6.74561 13.3695 5.36574C12.5786 3.98587 12.8226 3.5147 14.4633 5.36574C16.9117 8.2012 22.7846 18.4156 22.7846 18.4156C22.7846 18.4156 32.9148 35.3106 34.4966 37.5487C36.0784 39.7867 39.3178 43.9684 40.4873 44.0105C41.6736 43.9684 44.9887 39.669 46.4864 37.5487C47.984 35.4284 58.2152 18.4156 58.2152 18.4156C58.2152 18.4156 64.1049 8.22645 66.5534 5.41623C68.194 3.5147 68.4549 3.86808 67.6556 5.36574Z" fill="#979797"/>
</svg>
