<svg width="27" height="23" viewBox="0 0 27 23" fill="none" xmlns="http://www.w3.org/2000/svg">
<path d="M6.47407 23C4.48642 23 2.8963 22.2901 1.7037 20.8704C0.567901 19.3938 0 17.4914 0 15.163C0 11.9827 0.851852 9.11481 2.55556 6.55926C4.31605 3.94691 6.98519 1.76049 10.563 0L11.5 1.36296C9.7963 2.38518 8.23457 3.83333 6.81482 5.70741C5.45185 7.52469 4.77037 9.37037 4.77037 11.2444C4.77037 11.7556 4.91235 12.1815 5.1963 12.5222C5.48025 12.8062 5.90617 12.9481 6.47407 12.9481C7.89383 12.9481 9.08642 13.4593 10.0519 14.4815C11.0741 15.4469 11.5852 16.6395 11.5852 18.0593C11.5852 19.479 11.0741 20.6716 10.0519 21.637C9.08642 22.5457 7.89383 23 6.47407 23ZM21.2111 23C19.2235 23 17.6333 22.2901 16.4407 20.8704C15.3049 19.3938 14.737 17.4914 14.737 15.163C14.737 11.9827 15.5889 9.11481 17.2926 6.55926C19.0531 3.94691 21.7222 1.76049 25.3 0L26.237 1.36296C24.5333 2.38518 22.9716 3.83333 21.5519 5.70741C20.1889 7.52469 19.5074 9.37037 19.5074 11.2444C19.5074 11.7556 19.6494 12.1815 19.9333 12.5222C20.2173 12.8062 20.6432 12.9481 21.2111 12.9481C22.6309 12.9481 23.8235 13.4593 24.7889 14.4815C25.8111 15.4469 26.3222 16.6395 26.3222 18.0593C26.3222 19.479 25.8111 20.6716 24.7889 21.637C23.8235 22.5457 22.6309 23 21.2111 23Z" fill="#222222"/>
</svg>
