<svg width="18" height="18" viewBox="0 0 18 18" fill="none" xmlns="http://www.w3.org/2000/svg">
<path d="M2.33366 0.666504H15.667C16.109 0.666504 16.5329 0.842099 16.8455 1.15466C17.1581 1.46722 17.3337 1.89114 17.3337 2.33317V12.3332C17.3337 12.7752 17.1581 13.1991 16.8455 13.5117C16.5329 13.8242 16.109 13.9998 15.667 13.9998H12.3337L9.00033 17.3332L5.66699 13.9998H2.33366C1.89163 13.9998 1.46771 13.8242 1.15515 13.5117C0.842587 13.1991 0.666992 12.7752 0.666992 12.3332V2.33317C0.666992 1.89114 0.842587 1.46722 1.15515 1.15466C1.46771 0.842099 1.89163 0.666504 2.33366 0.666504ZM3.16699 3.1665V4.83317H14.8337V3.1665H3.16699ZM3.16699 6.49984V8.1665H11.5003V6.49984H3.16699ZM3.16699 9.83317V11.4998H13.167V9.83317H3.16699Z" fill="#2C72C6"/>
</svg>
